{
  "accessors": [
    {
      "bufferView": 1,
      "componentType": 5126,
      "count": 953,
      "max": [
        -45.597572326660156,
        -119.68647003173828,
        77.04117584228516
      ],
      "min": [
        -68.54248046875,
        -169.10284423828125,
        6.908439636230469
      ],
      "type": "VEC3"
    },
    {
      "bufferView": 1,
      "byteOffset": 11436,
      "componentType": 5126,
      "count": 953,
      "max": [
        0.9999617338180542,
        0.9999999403953552,
        0.9993759393692017
      ],
      "min": [
        -0.9999970197677612,
        -1.0,
        -1.0
      ],
      "type": "VEC3"
    },
    {
      "bufferView": 0,
      "componentType": 5125,
      "count": 4584,
      "type": "SCALAR"
    }
  ],
  "asset": {
    "extras": {
      "author": "deadriaa (https://sketchfab.com/deadria)",
      "license": "CC-BY-4.0 (http://creativecommons.org/licenses/by/4.0/)",
      "source": "https://sketchfab.com/3d-models/trading-card-stand-bf53f1941ac14086a088e71b12f9fe21",
      "title": "Trading Card Stand"
    },
    "generator": "Sketchfab-17.14.0",
    "version": "2.0"
  },
  "bufferViews": [
    {
      "buffer": 0,
      "byteLength": 18336,
      "name": "floatBufferViews",
      "target": 34963
    },
    {
      "buffer": 0,
      "byteLength": 22872,
      "byteOffset": 18336,
      "byteStride": 12,
      "name": "floatBufferViews",
      "target": 34962
    }
  ],
  "buffers": [
    {
      "byteLength": 41208,
      "uri": "scene.bin"
    }
  ],
  "materials": [
    {
      "doubleSided": true,
      "name": "Scene_-_Root",
      "pbrMetallicRoughness": {
        "baseColorFactor": [
          0.565335056259219,
          0.565335056259219,
          0.565335056259219,
          1.0
        ],
        "metallicFactor": 0.0,
        "roughnessFactor": 0.6
      }
    }
  ],
  "meshes": [
    {
      "name": "Object_0",
      "primitives": [
        {
          "attributes": {
            "NORMAL": 1,
            "POSITION": 0
          },
          "indices": 2,
          "material": 0,
          "mode": 4
        }
      ]
    }
  ],
  "nodes": [
    {
      "children": [
        1
      ],
      "matrix": [
        1.0,
        0.0,
        0.0,
        0.0,
        0.0,
        2.220446049250313e-16,
        -1.0,
        0.0,
        0.0,
        1.0,
        2.220446049250313e-16,
        0.0,
        0.0,
        0.0,
        0.0,
        1.0
      ],
      "name": "Sketchfab_model"
    },
    {
      "children": [
        2
      ],
      "name": "3df1dd02948b4d79a1e40522e08b6dfe.stl.cleaner.materialmerger.gles"
    },
    {
      "mesh": 0,
      "name": "Object_2"
    }
  ],
  "scene": 0,
  "scenes": [
    {
      "name": "Sketchfab_Scene",
      "nodes": [
        0
      ]
    }
  ]
}
